# xmcd CD database file
#
# Track frame offsets:
#	150
#	12829
#	25469
#	37867
#	50014
#	62648
#	75365
#	88719
#	102711
#	114919
#	129313
#	140891
#	154295
#
# Disc length: 2201 seconds
#
# Revision: 3
# Processed by: cddbd v1.5.2PL0 Copyright (c) Steve Scherf et al.
# Submitted via: CDex 1.70beta2
#
DISCID=a808970d
DTITLE=Sonny Terry - Worried Man Blues
DYEAR=1900
DGENRE=Blues
TTITLE0=Early Morning Blues
TTITLE1=Riff And Harmonica Jump
TTITLE2=Beer Garden Blues
TTITLE3=Worried Man Blues
TTITLE4=Airplane Blues
TTITLE5=Screamin' And Cryin' Blues
TTITLE6=Custard Pie Blues
TTITLE7=All Alone Blues
TTITLE8=Whoopin' The Blues
TTITLE9=Hot Headed Woman
TTITLE10=Crow Jane Blues
TTITLE11=Leavin' Blues
TTITLE12=Harmonica Rag
EXTD=
EXTT0=
EXTT1=
EXTT2=
EXTT3=
EXTT4=
EXTT5=
EXTT6=
EXTT7=
EXTT8=
EXTT9=
EXTT10=
EXTT11=
EXTT12=
PLAYORDER=
